Coordinates
version=1
nRows=5
nColumns=63
inDegrees=yes

Units are S.I. units (second, meters, Newtons, ...)
If the header above contains a line with 'inDegrees', this indicates whether rotational values are in degrees (yes) or radians (no).

endheader
time	pelvis_tilt	pelvis_list	pelvis_rotation	pelvis_tx	pelvis_ty	pelvis_tz	hip_flexion_r	hip_adduction_r	hip_rotation_r	knee_angle_r	knee_angle_r_beta	ankle_angle_r	subtalar_angle_r	mtp_angle_r	hip_flexion_l	hip_adduction_l	hip_rotation_l	knee_angle_l	knee_angle_l_beta	ankle_angle_l	subtalar_angle_l	mtp_angle_l	L5_S1_Flex_Ext	L5_S1_Lat_Bending	L5_S1_axial_rotation	L4_L5_Flex_Ext	L4_L5_Lat_Bending	L4_L5_axial_rotation	L3_L4_Flex_Ext	L3_L4_Lat_Bending	L3_L4_axial_rotation	L2_L3_Flex_Ext	L2_L3_Lat_Bending	L2_L3_axial_rotation	L1_L2_Flex_Ext	L1_L2_Lat_Bending	L1_L2_axial_rotation	L1_T12_Flex_Ext	L1_T12_Lat_Bending	L1_T12_axial_rotation	Abs_r3	Abs_r2	Abs_r1	Abs_t1	Abs_t2	neck_flexion	neck_bending	neck_rotation	arm_flex_r	arm_add_r	arm_rot_r	elbow_flex_r	pro_sup_r	wrist_flex_r	wrist_dev_r	arm_flex_l	arm_add_l	arm_rot_l	elbow_flex_l	pro_sup_l	wrist_flex_l	wrist_dev_l
      0.00000000	      0.44794591	     -3.06486659	     90.52376260	      0.28172612	      1.00694911	      0.33265071	     -4.99350326	      1.29202002	     11.31319533	      0.37240092	      0.00649962	     26.70025993	    -15.15311304	      0.00000000	     -2.87174033	     -2.54712193	     20.21285931	      0.30928846	      0.00539810	     30.80007030	    -10.67318430	      0.00000000	      0.20372393	      0.10083383	     -1.30103130	      0.37833570	      0.13410899	     -1.38234576	      0.33469804	      0.24516736	     -1.38234576	      0.23283608	      0.24516736	     -1.13840239	      0.18917804	      0.20562034	     -1.05708793	      0.11640785	      0.15619159	     -0.97577347	      1.45517964	      1.14065240	     -7.23594578	      0.00000000	      0.00000000	     25.94147373	      4.60077804	      2.79277447	     19.11516367	     10.01397129	   -111.24099301	      0.23376878	     39.89144142	    -39.50945488	     -2.43460536	     20.68595191	    -10.88603035	     79.48722373	     39.10949239	     86.89799607	     -5.58922834	     -5.97736637
      0.01666667	      0.14085319	     -3.76300717	     89.15703782	      0.28194490	      1.00682395	      0.33656798	     -3.74920949	      0.73466741	     13.17993300	      0.41935039	      0.00731905	     27.59662056	    -15.00870173	      0.00000000	     -1.87665368	     -2.07520127	     21.49803045	      0.30310550	      0.00529019	     30.81032272	    -11.72749052	      0.00000000	      0.20977641	      0.09949651	     -1.14890777	      0.38957577	      0.13233035	     -1.22071450	      0.34464166	      0.24191580	     -1.22071450	      0.23975346	      0.24191580	     -1.00529430	      0.19479837	      0.20289327	     -0.93348756	      0.11986624	      0.15412009	     -0.86168082	      1.49841190	      1.12552437	     -6.38988032	      0.00000000	      0.00000000	     26.42055334	      5.09736391	      4.40927445	     19.54343133	     10.22884997	   -111.74355590	      0.22842014	     38.63384489	    -40.01891334	     -5.54827503	     22.42515407	    -11.41369542	     83.75437990	     40.69027833	     86.20844536	     -3.92462771	     -3.07888808
      0.03333333	     -0.15968746	     -4.29791489	     88.37132631	      0.28195011	      1.00657454	      0.33988045	     -2.77009365	      0.29612722	     12.74796847	      0.48058197	      0.00838774	     28.69756132	    -12.65680674	      0.00000000	     -1.03987854	     -1.70638289	     20.77857421	      0.30746124	      0.00536621	     31.31770445	    -10.17787427	      0.00000000	      0.21465499	      0.08405104	     -1.06592235	      0.39863579	      0.11178789	     -1.13254249	      0.35265669	      0.20436170	     -1.13254249	      0.24532919	      0.20436170	     -0.93268205	      0.19932863	      0.17139688	     -0.86606191	      0.12265386	      0.13019506	     -0.79944176	      1.53325914	      0.95080220	     -5.92834031	      0.00000000	      0.00000000	     26.87680519	      5.56006509	      5.42674044	     20.04512571	     10.47253951	   -111.33160277	      0.22199793	     39.16618739	    -41.00032326	     -7.11617341	     23.54121549	    -11.61702606	     86.12350497	     41.69434876	     84.89100089	     -2.01515646	     -1.24358839
      0.05000000	     -0.39123587	     -4.83426739	     87.66872172	      0.28231426	      1.00598352	      0.34266455	     -1.86303678	      0.00912427	     14.80305766	      0.51438287	      0.00897767	     28.47750792	    -14.18559550	      0.00000000	     -0.26904189	     -1.44354899	     22.53702449	      0.30685426	      0.00535562	     30.81129113	    -12.92593293	      0.00000000	      0.24097661	      0.07137415	     -0.99450851	      0.44751767	      0.09492762	     -1.05666529	      0.39590048	      0.17353911	     -1.05666529	      0.27541217	      0.17353911	     -0.87019495	      0.22377088	      0.14554617	     -0.80803816	      0.13769404	      0.11055856	     -0.74588138	      1.72127184	      0.80739867	     -5.53115797	      0.00000000	      0.00000000	     27.24748977	      5.87244928	      6.15709478	     20.76630723	     10.57787983	   -111.17406920	      0.21994655	     34.29386189	    -40.62139423	    -12.43697362	     23.68407574	    -11.73347106	     86.02445575	     42.33174473	     81.82035683	      0.33363513	      0.25032681
      0.06666667	     -0.56554787	     -5.29763914	     87.37767981	      0.28241560	      1.00533576	      0.34484574	     -1.12258188	     -0.17213475	     14.71536534	      0.57127653	      0.00997066	     28.62617976	    -13.47040481	      0.00000000	      0.41003880	     -1.28257655	     21.37373236	      0.32050549	      0.00559388	     31.19084239	    -11.54980647	      0.00000000	      0.27619341	      0.05956465	     -0.96935374	      0.51291878	      0.07922098	     -1.02993835	      0.45375815	      0.14482548	     -1.02993835	      0.31566145	      0.14482548	     -0.84818453	      0.25647320	      0.12146422	     -0.78759992	      0.15781691	      0.09226564	     -0.72701531	      1.97282190	      0.67380718	     -5.39125472	      0.00000000	      0.00000000	     27.52027114	      6.09846657	      6.63061186	     21.35806850	     10.70832585	   -110.66664200	      0.21685419	     35.79036277	    -41.99559761	    -13.93331115	     23.43940758	    -11.63630825	     85.23370417	     42.43758870	     77.84727648	      2.13980786	      0.89319655
